<svg xmlns="http://www.w3.org/2000/svg" direction="ltr" width="1254" height="1254" viewBox="647.3582151298785 704.6806051296242 1254 1254" stroke-linecap="round" stroke-linejoin="round" data-color-mode="light" class="tl-container tl-theme__force-sRGB tl-theme__light" style="background-color: transparent;"><defs/><g transform="matrix(1, 0, 0, 1, 647.3582, 704.6806)" opacity="1"><g data-lovart-layer-name="ChatGPT Image 2026年7月4日 11_30_00_SVG"><g transform="scale(1, 1)"><g>
<g xmlns="http://www.w3.org/2000/svg" stroke-width="2.00" fill="none" stroke-linecap="butt">
<path stroke="#858dca" d="M 169.22 867.53   Q 161.60 853.74 156.46 844.08   C 116.61 769.27 94.22 685.88 92.74 601.08   Q 92.02 560.17 96.82 524.76   Q 112.12 412.00 169.48 315.34   Q 191.08 278.95 216.69 247.03   Q 241.75 215.80 274.00 187.00   Q 302.00 161.99 331.49 142.74   Q 367.23 119.41 408.51 100.21   C 441.49 84.86 478.28 72.85 512.76 65.24   Q 673.03 29.84 824.34 91.97   C 912.99 128.36 992.94 189.29 1049.44 267.30   Q 1117.16 360.82 1143.32 473.74   Q 1154.03 519.95 1156.08 564.75   Q 1162.64 707.53 1098.07 834.83   Q 1091.18 848.40 1081.06 866.60   A 0.52 0.51 25.7 0 0 1081.32 867.33   L 1112.93 879.99   A 0.64 0.64 0.0 0 0 1113.72 879.71   C 1156.61 803.95 1184.46 718.84 1190.02 631.75   C 1193.26 580.94 1190.58 529.55 1181.01 480.48   Q 1171.80 433.25 1154.19 385.77   Q 1117.53 286.89 1047.63 206.92   C 931.02 73.51 751.08 0.05 573.25 18.77   Q 433.90 33.44 316.47 109.76   C 155.68 214.27 60.00 396.65 58.08 586.85   C 57.04 689.16 85.45 790.49 136.13 879.80   A 1.02 1.02 0.0 0 0 137.38 880.25   L 169.03 868.05   A 0.37 0.37 0.0 0 0 169.22 867.53"/>
<path stroke="#858dca" d="M 852.47 206.10   L 401.63 206.10   A 0.49 0.49 0.0 0 0 401.14 206.58   Q 400.82 218.45 400.96 225.25   C 401.22 238.32 405.45 253.08 413.69 263.43   A 2.95 2.94 -64.2 0 1 414.32 265.25   L 414.32 289.86   A 0.63 0.63 0.0 0 1 413.69 290.49   L 275.41 290.49   A 0.61 0.60 -86.2 0 0 274.81 291.02   Q 274.54 293.06 274.62 294.51   C 276.66 332.09 301.48 362.83 338.43 371.23   A 0.97 0.97 0.0 0 1 339.19 372.18   L 339.19 857.13   A 0.56 0.56 0.0 0 1 338.64 857.69   C 313.56 857.98 287.68 860.06 262.62 864.40   Q 203.02 874.73 147.43 896.91   Q 118.92 908.28 91.54 922.53   Q 83.08 926.93 66.57 935.96   A 0.42 0.41 64.1 0 0 66.39 936.49   L 124.20 1068.27   A 0.54 0.54 0.0 0 0 124.92 1068.55   C 184.13 1042.12 248.90 1025.67 313.75 1023.80   Q 356.64 1022.56 394.52 1030.03   Q 456.07 1042.16 513.98 1071.79   Q 557.08 1093.84 596.14 1122.65   A 0.32 0.32 0.0 0 0 596.61 1122.22   C 594.57 1118.90 591.64 1113.94 588.57 1110.08   Q 581.06 1100.62 576.43 1094.80   Q 573.37 1090.95 562.40 1080.22   C 506.48 1025.50 428.05 995.62 350.98 990.78   C 279.73 986.31 207.50 1000.91 141.84 1025.99   A 0.62 0.61 -21.8 0 1 141.05 1025.66   L 108.64 951.79   A 0.69 0.69 0.0 0 1 108.96 950.91   Q 128.87 940.86 148.68 932.43   Q 207.49 907.42 269.67 897.13   Q 329.14 887.30 387.96 894.28   Q 441.77 900.66 489.94 925.21   C 548.37 955.00 596.19 1005.11 619.86 1066.63   Q 623.67 1076.52 625.88 1085.25   A 0.21 0.20 45.7 0 0 626.28 1085.26   Q 629.70 1072.78 635.66 1058.64   C 660.82 998.92 709.02 950.75 766.95 922.33   C 801.77 905.25 840.68 895.62 879.25 892.27   C 917.68 888.92 958.19 891.93 996.49 899.53   Q 1051.49 910.43 1103.40 932.84   Q 1122.88 941.25 1141.64 950.86   A 0.38 0.37 -64.5 0 1 1141.81 951.35   L 1109.61 1024.95   A 0.96 0.96 0.0 0 1 1108.40 1025.47   C 1064.59 1009.00 1019.73 997.32 973.26 992.30   C 909.81 985.45 845.85 993.04 786.39 1017.16   Q 732.43 1039.05 690.29 1078.79   Q 669.61 1098.29 654.81 1121.96   A 0.41 0.41 0.0 0 0 655.41 1122.51   C 702.51 1087.31 756.22 1059.05 813.05 1041.32   Q 879.23 1020.68 945.49 1024.01   Q 970.26 1025.25 992.07 1028.63   Q 1061.51 1039.38 1125.41 1068.37   A 0.66 0.66 0.0 0 0 1126.29 1068.03   L 1183.81 936.56   A 0.71 0.70 27.0 0 0 1183.51 935.66   Q 1167.91 926.76 1153.26 919.26   Q 1085.19 884.39 1010.68 868.32   C 978.02 861.27 945.58 857.74 913.16 857.54   A 0.44 0.43 0.7 0 1 912.73 857.11   L 912.73 372.13   A 0.66 0.65 -6.0 0 1 913.25 371.49   C 951.92 363.36 978.99 330.56 979.12 291.18   A 0.70 0.70 0.0 0 0 978.42 290.48   L 839.92 290.48   A 0.36 0.36 0.0 0 1 839.56 290.12   L 839.56 265.33   A 3.25 3.24 -26.5 0 1 840.22 263.37   Q 852.88 246.55 853.26 225.00   Q 853.47 212.53 853.12 206.72   A 0.65 0.65 0.0 0 0 852.47 206.10"/>
<path stroke="#858dca" d="M 123.96 1136.29   L 137.65 1165.95   A 0.61 0.61 0.0 0 0 138.48 1166.24   C 180.98 1144.60 226.07 1129.35 273.33 1121.85   C 334.90 1112.07 396.81 1117.51 455.91 1137.85   Q 495.58 1151.51 530.45 1171.83   Q 545.20 1180.42 551.17 1184.35   Q 582.55 1205.01 610.65 1229.19   C 615.67 1233.51 619.42 1235.71 625.43 1239.63   A 0.87 0.87 0.0 0 0 626.39 1239.63   Q 634.33 1234.45 636.26 1232.76   C 669.73 1203.34 707.56 1177.21 747.52 1157.78   Q 799.16 1132.66 856.33 1122.47   C 943.73 1106.89 1033.38 1125.53 1111.59 1166.03   A 0.70 0.69 25.8 0 0 1112.53 1165.71   L 1126.41 1136.24   A 0.55 0.54 26.1 0 0 1126.16 1135.53   Q 1066.03 1104.84 1000.78 1091.74   Q 933.99 1078.34 869.01 1086.81   Q 798.65 1095.99 733.33 1127.87   Q 675.10 1156.28 626.06 1198.62   A 0.39 0.39 0.0 0 1 625.56 1198.62   Q 598.59 1175.83 568.84 1156.43   C 522.51 1126.23 471.29 1104.29 417.03 1092.48   C 362.22 1080.55 305.49 1080.92 250.81 1091.81   C 206.74 1100.59 164.48 1115.85 124.18 1135.68   A 0.47 0.46 -25.4 0 0 123.96 1136.29"/>
<path stroke="#858dca" d="M 819.58 238.87   L 434.41 238.87   A 0.46 0.46 0.0 0 0 433.97 239.46   Q 436.79 248.88 444.95 254.41   A 1.65 1.62 17.4 0 1 445.67 255.76   L 445.67 322.39   A 0.71 0.71 0.0 0 1 444.96 323.10   L 316.72 323.10   A 0.43 0.43 0.0 0 0 316.39 323.81   C 326.99 336.57 343.80 343.81 360.28 344.05   Q 365.43 344.13 369.86 344.06   A 0.56 0.55 89.5 0 1 370.42 344.62   L 370.42 857.74   A 0.44 0.44 0.0 0 0 370.85 858.18   Q 380.35 858.38 390.18 859.63   Q 423.14 863.80 452.46 873.33   Q 462.62 876.63 472.70 880.22   A 0.38 0.37 -80.3 0 0 473.20 879.86   L 473.20 350.66   A 0.81 0.81 0.0 0 1 474.01 349.85   L 779.76 349.85   A 0.58 0.58 0.0 0 1 780.34 350.43   L 780.34 879.23   A 0.36 0.35 -10.3 0 0 780.82 879.56   Q 829.94 860.36 881.91 857.64   A 0.75 0.74 88.4 0 0 882.61 856.89   L 882.61 344.61   A 0.50 0.49 -0.0 0 1 883.11 344.12   Q 890.48 344.27 897.48 343.64   C 912.68 342.29 927.59 335.57 937.10 323.65   A 0.34 0.34 0.0 0 0 936.84 323.09   L 808.85 323.09   A 0.51 0.51 0.0 0 1 808.34 322.58   L 808.34 255.47   A 1.07 1.07 0.0 0 1 808.76 254.62   Q 810.28 253.47 812.00 252.01   Q 817.84 247.04 820.08 239.54   A 0.52 0.52 0.0 0 0 819.58 238.87"/>
<path stroke="#858dca" d="M 699.59 925.00   A 0.45 0.45 0.0 0 0 700.32 925.36   Q 723.21 907.08 748.82 894.15   A 0.98 0.98 0.0 0 0 749.37 893.27   L 749.37 383.44   A 0.73 0.72 -0.0 0 0 748.64 382.72   L 505.19 382.72   A 0.65 0.65 0.0 0 0 504.54 383.37   L 504.54 893.96   A 1.84 1.84 0.0 0 0 505.51 895.58   Q 520.33 903.54 535.46 913.32   C 540.80 916.78 546.00 921.15 551.56 925.30   A 0.36 0.35 -71.9 0 0 552.12 925.01   Q 552.28 843.49 552.17 470.75   Q 552.16 466.20 554.66 462.90   C 563.94 450.67 575.14 443.62 589.34 435.07   Q 595.55 431.33 601.74 427.57   Q 609.76 422.70 614.72 421.32   C 626.96 417.93 638.34 419.84 649.19 426.60   Q 662.73 435.05 673.32 441.42   Q 686.78 449.51 695.94 461.04   Q 699.61 465.65 699.61 468.75   Q 699.53 739.82 699.59 925.00"/>
<path stroke="#858dca" d="M 625.76 586.86   Q 667.05 586.89 667.19 586.88   A 0.56 0.56 0.0 0 0 667.73 586.32   L 667.79 486.00   A 5.02 4.90 36.9 0 0 667.56 484.51   Q 665.78 478.97 661.25 474.52   C 652.18 465.61 638.94 457.14 625.85 457.13   C 612.76 457.12 599.50 465.58 590.42 474.47   Q 585.89 478.92 584.10 484.46   A 5.02 4.90 -36.8 0 0 583.87 485.95   L 583.80 586.27   A 0.56 0.56 0.0 0 0 584.34 586.83   Q 584.48 586.83 625.76 586.86"/>
<path stroke="#858dca" d="M 625.89 1008.50   Q 626.03 1008.50 626.16 1008.43   A 0.07 0.04 -84.4 0 0 626.19 1008.39   Q 643.96 979.61 667.17 955.37   A 2.13 2.12 -23.1 0 0 667.77 953.89   L 667.77 620.24   A 0.63 0.63 0.0 0 0 667.13 619.61   Q 646.51 619.66 625.73 619.67   Q 604.96 619.68 584.34 619.64   A 0.63 0.63 0.0 0 0 583.70 620.27   L 583.96 953.92   A 2.13 2.12 23.0 0 0 584.56 955.40   Q 607.79 979.62 625.58 1008.39   A 0.07 0.04 84.3 0 0 625.61 1008.43   Q 625.74 1008.50 625.89 1008.50"/>
</g>
<path xmlns="http://www.w3.org/2000/svg" fill="#ffffff" d="M 1254.00 0.00   L 1254.00 1254.00   L 0.00 1254.00   L 0.00 0.00   L 1254.00 0.00   Z   M 169.22 867.53   Q 161.60 853.74 156.46 844.08   C 116.61 769.27 94.22 685.88 92.74 601.08   Q 92.02 560.17 96.82 524.76   Q 112.12 412.00 169.48 315.34   Q 191.08 278.95 216.69 247.03   Q 241.75 215.80 274.00 187.00   Q 302.00 161.99 331.49 142.74   Q 367.23 119.41 408.51 100.21   C 441.49 84.86 478.28 72.85 512.76 65.24   Q 673.03 29.84 824.34 91.97   C 912.99 128.36 992.94 189.29 1049.44 267.30   Q 1117.16 360.82 1143.32 473.74   Q 1154.03 519.95 1156.08 564.75   Q 1162.64 707.53 1098.07 834.83   Q 1091.18 848.40 1081.06 866.60   A 0.52 0.51 25.7 0 0 1081.32 867.33   L 1112.93 879.99   A 0.64 0.64 0.0 0 0 1113.72 879.71   C 1156.61 803.95 1184.46 718.84 1190.02 631.75   C 1193.26 580.94 1190.58 529.55 1181.01 480.48   Q 1171.80 433.25 1154.19 385.77   Q 1117.53 286.89 1047.63 206.92   C 931.02 73.51 751.08 0.05 573.25 18.77   Q 433.90 33.44 316.47 109.76   C 155.68 214.27 60.00 396.65 58.08 586.85   C 57.04 689.16 85.45 790.49 136.13 879.80   A 1.02 1.02 0.0 0 0 137.38 880.25   L 169.03 868.05   A 0.37 0.37 0.0 0 0 169.22 867.53   Z   M 852.47 206.10   L 401.63 206.10   A 0.49 0.49 0.0 0 0 401.14 206.58   Q 400.82 218.45 400.96 225.25   C 401.22 238.32 405.45 253.08 413.69 263.43   A 2.95 2.94 -64.2 0 1 414.32 265.25   L 414.32 289.86   A 0.63 0.63 0.0 0 1 413.69 290.49   L 275.41 290.49   A 0.61 0.60 -86.2 0 0 274.81 291.02   Q 274.54 293.06 274.62 294.51   C 276.66 332.09 301.48 362.83 338.43 371.23   A 0.97 0.97 0.0 0 1 339.19 372.18   L 339.19 857.13   A 0.56 0.56 0.0 0 1 338.64 857.69   C 313.56 857.98 287.68 860.06 262.62 864.40   Q 203.02 874.73 147.43 896.91   Q 118.92 908.28 91.54 922.53   Q 83.08 926.93 66.57 935.96   A 0.42 0.41 64.1 0 0 66.39 936.49   L 124.20 1068.27   A 0.54 0.54 0.0 0 0 124.92 1068.55   C 184.13 1042.12 248.90 1025.67 313.75 1023.80   Q 356.64 1022.56 394.52 1030.03   Q 456.07 1042.16 513.98 1071.79   Q 557.08 1093.84 596.14 1122.65   A 0.32 0.32 0.0 0 0 596.61 1122.22   C 594.57 1118.90 591.64 1113.94 588.57 1110.08   Q 581.06 1100.62 576.43 1094.80   Q 573.37 1090.95 562.40 1080.22   C 506.48 1025.50 428.05 995.62 350.98 990.78   C 279.73 986.31 207.50 1000.91 141.84 1025.99   A 0.62 0.61 -21.8 0 1 141.05 1025.66   L 108.64 951.79   A 0.69 0.69 0.0 0 1 108.96 950.91   Q 128.87 940.86 148.68 932.43   Q 207.49 907.42 269.67 897.13   Q 329.14 887.30 387.96 894.28   Q 441.77 900.66 489.94 925.21   C 548.37 955.00 596.19 1005.11 619.86 1066.63   Q 623.67 1076.52 625.88 1085.25   A 0.21 0.20 45.7 0 0 626.28 1085.26   Q 629.70 1072.78 635.66 1058.64   C 660.82 998.92 709.02 950.75 766.95 922.33   C 801.77 905.25 840.68 895.62 879.25 892.27   C 917.68 888.92 958.19 891.93 996.49 899.53   Q 1051.49 910.43 1103.40 932.84   Q 1122.88 941.25 1141.64 950.86   A 0.38 0.37 -64.5 0 1 1141.81 951.35   L 1109.61 1024.95   A 0.96 0.96 0.0 0 1 1108.40 1025.47   C 1064.59 1009.00 1019.73 997.32 973.26 992.30   C 909.81 985.45 845.85 993.04 786.39 1017.16   Q 732.43 1039.05 690.29 1078.79   Q 669.61 1098.29 654.81 1121.96   A 0.41 0.41 0.0 0 0 655.41 1122.51   C 702.51 1087.31 756.22 1059.05 813.05 1041.32   Q 879.23 1020.68 945.49 1024.01   Q 970.26 1025.25 992.07 1028.63   Q 1061.51 1039.38 1125.41 1068.37   A 0.66 0.66 0.0 0 0 1126.29 1068.03   L 1183.81 936.56   A 0.71 0.70 27.0 0 0 1183.51 935.66   Q 1167.91 926.76 1153.26 919.26   Q 1085.19 884.39 1010.68 868.32   C 978.02 861.27 945.58 857.74 913.16 857.54   A 0.44 0.43 0.7 0 1 912.73 857.11   L 912.73 372.13   A 0.66 0.65 -6.0 0 1 913.25 371.49   C 951.92 363.36 978.99 330.56 979.12 291.18   A 0.70 0.70 0.0 0 0 978.42 290.48   L 839.92 290.48   A 0.36 0.36 0.0 0 1 839.56 290.12   L 839.56 265.33   A 3.25 3.24 -26.5 0 1 840.22 263.37   Q 852.88 246.55 853.26 225.00   Q 853.47 212.53 853.12 206.72   A 0.65 0.65 0.0 0 0 852.47 206.10   Z   M 123.96 1136.29   L 137.65 1165.95   A 0.61 0.61 0.0 0 0 138.48 1166.24   C 180.98 1144.60 226.07 1129.35 273.33 1121.85   C 334.90 1112.07 396.81 1117.51 455.91 1137.85   Q 495.58 1151.51 530.45 1171.83   Q 545.20 1180.42 551.17 1184.35   Q 582.55 1205.01 610.65 1229.19   C 615.67 1233.51 619.42 1235.71 625.43 1239.63   A 0.87 0.87 0.0 0 0 626.39 1239.63   Q 634.33 1234.45 636.26 1232.76   C 669.73 1203.34 707.56 1177.21 747.52 1157.78   Q 799.16 1132.66 856.33 1122.47   C 943.73 1106.89 1033.38 1125.53 1111.59 1166.03   A 0.70 0.69 25.8 0 0 1112.53 1165.71   L 1126.41 1136.24   A 0.55 0.54 26.1 0 0 1126.16 1135.53   Q 1066.03 1104.84 1000.78 1091.74   Q 933.99 1078.34 869.01 1086.81   Q 798.65 1095.99 733.33 1127.87   Q 675.10 1156.28 626.06 1198.62   A 0.39 0.39 0.0 0 1 625.56 1198.62   Q 598.59 1175.83 568.84 1156.43   C 522.51 1126.23 471.29 1104.29 417.03 1092.48   C 362.22 1080.55 305.49 1080.92 250.81 1091.81   C 206.74 1100.59 164.48 1115.85 124.18 1135.68   A 0.47 0.46 -25.4 0 0 123.96 1136.29   Z"/>
<path xmlns="http://www.w3.org/2000/svg" fill="#0b1a94" d="M 169.22 867.53   A 0.37 0.37 0.0 0 1 169.03 868.05   L 137.38 880.25   A 1.02 1.02 0.0 0 1 136.13 879.80   C 85.45 790.49 57.04 689.16 58.08 586.85   C 60.00 396.65 155.68 214.27 316.47 109.76   Q 433.90 33.44 573.25 18.77   C 751.08 0.05 931.02 73.51 1047.63 206.92   Q 1117.53 286.89 1154.19 385.77   Q 1171.80 433.25 1181.01 480.48   C 1190.58 529.55 1193.26 580.94 1190.02 631.75   C 1184.46 718.84 1156.61 803.95 1113.72 879.71   A 0.64 0.64 0.0 0 1 1112.93 879.99   L 1081.32 867.33   A 0.52 0.51 25.7 0 1 1081.06 866.60   Q 1091.18 848.40 1098.07 834.83   Q 1162.64 707.53 1156.08 564.75   Q 1154.03 519.95 1143.32 473.74   Q 1117.16 360.82 1049.44 267.30   C 992.94 189.29 912.99 128.36 824.34 91.97   Q 673.03 29.84 512.76 65.24   C 478.28 72.85 441.49 84.86 408.51 100.21   Q 367.23 119.41 331.49 142.74   Q 302.00 161.99 274.00 187.00   Q 241.75 215.80 216.69 247.03   Q 191.08 278.95 169.48 315.34   Q 112.12 412.00 96.82 524.76   Q 92.02 560.17 92.74 601.08   C 94.22 685.88 116.61 769.27 156.46 844.08   Q 161.60 853.74 169.22 867.53   Z"/>
<path xmlns="http://www.w3.org/2000/svg" fill="#0b1a94" d="M 853.12 206.72   Q 853.47 212.53 853.26 225.00   Q 852.88 246.55 840.22 263.37   A 3.25 3.24 -26.5 0 0 839.56 265.33   L 839.56 290.12   A 0.36 0.36 0.0 0 0 839.92 290.48   L 978.42 290.48   A 0.70 0.70 0.0 0 1 979.12 291.18   C 978.99 330.56 951.92 363.36 913.25 371.49   A 0.66 0.65 -6.0 0 0 912.73 372.13   L 912.73 857.11   A 0.44 0.43 0.7 0 0 913.16 857.54   C 945.58 857.74 978.02 861.27 1010.68 868.32   Q 1085.19 884.39 1153.26 919.26   Q 1167.91 926.76 1183.51 935.66   A 0.71 0.70 27.0 0 1 1183.81 936.56   L 1126.29 1068.03   A 0.66 0.66 0.0 0 1 1125.41 1068.37   Q 1061.51 1039.38 992.07 1028.63   Q 970.26 1025.25 945.49 1024.01   Q 879.23 1020.68 813.05 1041.32   C 756.22 1059.05 702.51 1087.31 655.41 1122.51   A 0.41 0.41 0.0 0 1 654.81 1121.96   Q 669.61 1098.29 690.29 1078.79   Q 732.43 1039.05 786.39 1017.16   C 845.85 993.04 909.81 985.45 973.26 992.30   C 1019.73 997.32 1064.59 1009.00 1108.40 1025.47   A 0.96 0.96 0.0 0 0 1109.61 1024.95   L 1141.81 951.35   A 0.38 0.37 -64.5 0 0 1141.64 950.86   Q 1122.88 941.25 1103.40 932.84   Q 1051.49 910.43 996.49 899.53   C 958.19 891.93 917.68 888.92 879.25 892.27   C 840.68 895.62 801.77 905.25 766.95 922.33   C 709.02 950.75 660.82 998.92 635.66 1058.64   Q 629.70 1072.78 626.28 1085.26   A 0.21 0.20 45.7 0 1 625.88 1085.25   Q 623.67 1076.52 619.86 1066.63   C 596.19 1005.11 548.37 955.00 489.94 925.21   Q 441.77 900.66 387.96 894.28   Q 329.14 887.30 269.67 897.13   Q 207.49 907.42 148.68 932.43   Q 128.87 940.86 108.96 950.91   A 0.69 0.69 0.0 0 0 108.64 951.79   L 141.05 1025.66   A 0.62 0.61 -21.8 0 0 141.84 1025.99   C 207.50 1000.91 279.73 986.31 350.98 990.78   C 428.05 995.62 506.48 1025.50 562.40 1080.22   Q 573.37 1090.95 576.43 1094.80   Q 581.06 1100.62 588.57 1110.08   C 591.64 1113.94 594.57 1118.90 596.61 1122.22   A 0.32 0.32 0.0 0 1 596.14 1122.65   Q 557.08 1093.84 513.98 1071.79   Q 456.07 1042.16 394.52 1030.03   Q 356.64 1022.56 313.75 1023.80   C 248.90 1025.67 184.13 1042.12 124.92 1068.55   A 0.54 0.54 0.0 0 1 124.20 1068.27   L 66.39 936.49   A 0.42 0.41 64.1 0 1 66.57 935.96   Q 83.08 926.93 91.54 922.53   Q 118.92 908.28 147.43 896.91   Q 203.02 874.73 262.62 864.40   C 287.68 860.06 313.56 857.98 338.64 857.69   A 0.56 0.56 0.0 0 0 339.19 857.13   L 339.19 372.18   A 0.97 0.97 0.0 0 0 338.43 371.23   C 301.48 362.83 276.66 332.09 274.62 294.51   Q 274.54 293.06 274.81 291.02   A 0.61 0.60 -86.2 0 1 275.41 290.49   L 413.69 290.49   A 0.63 0.63 0.0 0 0 414.32 289.86   L 414.32 265.25   A 2.95 2.94 -64.2 0 0 413.69 263.43   C 405.45 253.08 401.22 238.32 400.96 225.25   Q 400.82 218.45 401.14 206.58   A 0.49 0.49 0.0 0 1 401.63 206.10   L 852.47 206.10   A 0.65 0.65 0.0 0 1 853.12 206.72   Z   M 819.58 238.87   L 434.41 238.87   A 0.46 0.46 0.0 0 0 433.97 239.46   Q 436.79 248.88 444.95 254.41   A 1.65 1.62 17.4 0 1 445.67 255.76   L 445.67 322.39   A 0.71 0.71 0.0 0 1 444.96 323.10   L 316.72 323.10   A 0.43 0.43 0.0 0 0 316.39 323.81   C 326.99 336.57 343.80 343.81 360.28 344.05   Q 365.43 344.13 369.86 344.06   A 0.56 0.55 89.5 0 1 370.42 344.62   L 370.42 857.74   A 0.44 0.44 0.0 0 0 370.85 858.18   Q 380.35 858.38 390.18 859.63   Q 423.14 863.80 452.46 873.33   Q 462.62 876.63 472.70 880.22   A 0.38 0.37 -80.3 0 0 473.20 879.86   L 473.20 350.66   A 0.81 0.81 0.0 0 1 474.01 349.85   L 779.76 349.85   A 0.58 0.58 0.0 0 1 780.34 350.43   L 780.34 879.23   A 0.36 0.35 -10.3 0 0 780.82 879.56   Q 829.94 860.36 881.91 857.64   A 0.75 0.74 88.4 0 0 882.61 856.89   L 882.61 344.61   A 0.50 0.49 -0.0 0 1 883.11 344.12   Q 890.48 344.27 897.48 343.64   C 912.68 342.29 927.59 335.57 937.10 323.65   A 0.34 0.34 0.0 0 0 936.84 323.09   L 808.85 323.09   A 0.51 0.51 0.0 0 1 808.34 322.58   L 808.34 255.47   A 1.07 1.07 0.0 0 1 808.76 254.62   Q 810.28 253.47 812.00 252.01   Q 817.84 247.04 820.08 239.54   A 0.52 0.52 0.0 0 0 819.58 238.87   Z   M 699.59 925.00   A 0.45 0.45 0.0 0 0 700.32 925.36   Q 723.21 907.08 748.82 894.15   A 0.98 0.98 0.0 0 0 749.37 893.27   L 749.37 383.44   A 0.73 0.72 -0.0 0 0 748.64 382.72   L 505.19 382.72   A 0.65 0.65 0.0 0 0 504.54 383.37   L 504.54 893.96   A 1.84 1.84 0.0 0 0 505.51 895.58   Q 520.33 903.54 535.46 913.32   C 540.80 916.78 546.00 921.15 551.56 925.30   A 0.36 0.35 -71.9 0 0 552.12 925.01   Q 552.28 843.49 552.17 470.75   Q 552.16 466.20 554.66 462.90   C 563.94 450.67 575.14 443.62 589.34 435.07   Q 595.55 431.33 601.74 427.57   Q 609.76 422.70 614.72 421.32   C 626.96 417.93 638.34 419.84 649.19 426.60   Q 662.73 435.05 673.32 441.42   Q 686.78 449.51 695.94 461.04   Q 699.61 465.65 699.61 468.75   Q 699.53 739.82 699.59 925.00   Z   M 625.76 586.86   Q 667.05 586.89 667.19 586.88   A 0.56 0.56 0.0 0 0 667.73 586.32   L 667.79 486.00   A 5.02 4.90 36.9 0 0 667.56 484.51   Q 665.78 478.97 661.25 474.52   C 652.18 465.61 638.94 457.14 625.85 457.13   C 612.76 457.12 599.50 465.58 590.42 474.47   Q 585.89 478.92 584.10 484.46   A 5.02 4.90 -36.8 0 0 583.87 485.95   L 583.80 586.27   A 0.56 0.56 0.0 0 0 584.34 586.83   Q 584.48 586.83 625.76 586.86   Z   M 625.89 1008.50   Q 626.03 1008.50 626.16 1008.43   A 0.07 0.04 -84.4 0 0 626.19 1008.39   Q 643.96 979.61 667.17 955.37   A 2.13 2.12 -23.1 0 0 667.77 953.89   L 667.77 620.24   A 0.63 0.63 0.0 0 0 667.13 619.61   Q 646.51 619.66 625.73 619.67   Q 604.96 619.68 584.34 619.64   A 0.63 0.63 0.0 0 0 583.70 620.27   L 583.96 953.92   A 2.13 2.12 23.0 0 0 584.56 955.40   Q 607.79 979.62 625.58 1008.39   A 0.07 0.04 84.3 0 0 625.61 1008.43   Q 625.74 1008.50 625.89 1008.50   Z"/>
<path xmlns="http://www.w3.org/2000/svg" fill="#ffffff" d="M 820.08 239.54   Q 817.84 247.04 812.00 252.01   Q 810.28 253.47 808.76 254.62   A 1.07 1.07 0.0 0 0 808.34 255.47   L 808.34 322.58   A 0.51 0.51 0.0 0 0 808.85 323.09   L 936.84 323.09   A 0.34 0.34 0.0 0 1 937.10 323.65   C 927.59 335.57 912.68 342.29 897.48 343.64   Q 890.48 344.27 883.11 344.12   A 0.50 0.49 -0.0 0 0 882.61 344.61   L 882.61 856.89   A 0.75 0.74 88.4 0 1 881.91 857.64   Q 829.94 860.36 780.82 879.56   A 0.36 0.35 -10.3 0 1 780.34 879.23   L 780.34 350.43   A 0.58 0.58 0.0 0 0 779.76 349.85   L 474.01 349.85   A 0.81 0.81 0.0 0 0 473.20 350.66   L 473.20 879.86   A 0.38 0.37 -80.3 0 1 472.70 880.22   Q 462.62 876.63 452.46 873.33   Q 423.14 863.80 390.18 859.63   Q 380.35 858.38 370.85 858.18   A 0.44 0.44 0.0 0 1 370.42 857.74   L 370.42 344.62   A 0.56 0.55 89.5 0 0 369.86 344.06   Q 365.43 344.13 360.28 344.05   C 343.80 343.81 326.99 336.57 316.39 323.81   A 0.43 0.43 0.0 0 1 316.72 323.10   L 444.96 323.10   A 0.71 0.71 0.0 0 0 445.67 322.39   L 445.67 255.76   A 1.65 1.62 17.4 0 0 444.95 254.41   Q 436.79 248.88 433.97 239.46   A 0.46 0.46 0.0 0 1 434.41 238.87   L 819.58 238.87   A 0.52 0.52 0.0 0 1 820.08 239.54   Z"/>
<path xmlns="http://www.w3.org/2000/svg" fill="#ffffff" d="M 699.59 925.00   Q 699.53 739.82 699.61 468.75   Q 699.61 465.65 695.94 461.04   Q 686.78 449.51 673.32 441.42   Q 662.73 435.05 649.19 426.60   C 638.34 419.84 626.96 417.93 614.72 421.32   Q 609.76 422.70 601.74 427.57   Q 595.55 431.33 589.34 435.07   C 575.14 443.62 563.94 450.67 554.66 462.90   Q 552.16 466.20 552.17 470.75   Q 552.28 843.49 552.12 925.01   A 0.36 0.35 -71.9 0 1 551.56 925.30   C 546.00 921.15 540.80 916.78 535.46 913.32   Q 520.33 903.54 505.51 895.58   A 1.84 1.84 0.0 0 1 504.54 893.96   L 504.54 383.37   A 0.65 0.65 0.0 0 1 505.19 382.72   L 748.64 382.72   A 0.73 0.72 -0.0 0 1 749.37 383.44   L 749.37 893.27   A 0.98 0.98 0.0 0 1 748.82 894.15   Q 723.21 907.08 700.32 925.36   A 0.45 0.45 0.0 0 1 699.59 925.00   Z"/>
<path xmlns="http://www.w3.org/2000/svg" fill="#ffffff" d="M 625.85 457.13   C 638.94 457.14 652.18 465.61 661.25 474.52   Q 665.78 478.97 667.56 484.51   A 5.02 4.90 36.9 0 1 667.79 486.00   L 667.73 586.32   A 0.56 0.56 0.0 0 1 667.19 586.88   Q 667.05 586.89 625.76 586.86   Q 584.48 586.83 584.34 586.83   A 0.56 0.56 0.0 0 1 583.80 586.27   L 583.87 485.95   A 5.02 4.90 -36.8 0 1 584.10 484.46   Q 585.89 478.92 590.42 474.47   C 599.50 465.58 612.76 457.12 625.85 457.13   Z"/>
<path xmlns="http://www.w3.org/2000/svg" fill="#ffffff" d="M 625.73 619.67   Q 646.51 619.66 667.13 619.61   A 0.63 0.63 0.0 0 1 667.77 620.24   L 667.77 953.89   A 2.13 2.12 -23.1 0 1 667.17 955.37   Q 643.96 979.61 626.19 1008.39   A 0.07 0.04 -84.4 0 1 626.16 1008.43   Q 626.03 1008.50 625.89 1008.50   Q 625.74 1008.50 625.61 1008.43   A 0.07 0.04 84.3 0 1 625.58 1008.39   Q 607.79 979.62 584.56 955.40   A 2.13 2.12 23.0 0 1 583.96 953.92   L 583.70 620.27   A 0.63 0.63 0.0 0 1 584.34 619.64   Q 604.96 619.68 625.73 619.67   Z"/>
<path xmlns="http://www.w3.org/2000/svg" fill="#0b1a94" d="M 123.96 1136.29   A 0.47 0.46 -25.4 0 1 124.18 1135.68   C 164.48 1115.85 206.74 1100.59 250.81 1091.81   C 305.49 1080.92 362.22 1080.55 417.03 1092.48   C 471.29 1104.29 522.51 1126.23 568.84 1156.43   Q 598.59 1175.83 625.56 1198.62   A 0.39 0.39 0.0 0 0 626.06 1198.62   Q 675.10 1156.28 733.33 1127.87   Q 798.65 1095.99 869.01 1086.81   Q 933.99 1078.34 1000.78 1091.74   Q 1066.03 1104.84 1126.16 1135.53   A 0.55 0.54 26.1 0 1 1126.41 1136.24   L 1112.53 1165.71   A 0.70 0.69 25.8 0 1 1111.59 1166.03   C 1033.38 1125.53 943.73 1106.89 856.33 1122.47   Q 799.16 1132.66 747.52 1157.78   C 707.56 1177.21 669.73 1203.34 636.26 1232.76   Q 634.33 1234.45 626.39 1239.63   A 0.87 0.87 0.0 0 1 625.43 1239.63   C 619.42 1235.71 615.67 1233.51 610.65 1229.19   Q 582.55 1205.01 551.17 1184.35   Q 545.20 1180.42 530.45 1171.83   Q 495.58 1151.51 455.91 1137.85   C 396.81 1117.51 334.90 1112.07 273.33 1121.85   C 226.07 1129.35 180.98 1144.60 138.48 1166.24   A 0.61 0.61 0.0 0 1 137.65 1165.95   L 123.96 1136.29   Z"/>
</g></g></g></g></svg>